# xmcd
#
# Track frame offsets:
# 150
# 15615
# 31149
# 47088
# 66525
# 83593
# 96842
# 113114
# 126363
# 140923
# 155469
# 169247
#
# Disc length: 2464 seconds
#
#
# Revision: 0
# Processed by: cddbd v1.5.2PL0 Copyright (c) Steve Scherf et al.
# Submitted via: FreeRIP 2.945 
#
DISCID=a3099e0c
DTITLE=Louca Sedução - Não Aceito Despedida
DYEAR=1900
DGENRE=Samba
TTITLE0=Não Aceito despedida
TTITLE1=Tô Fora
TTITLE2=Jogo do Amor
TTITLE3=Tá Tudo Errado
TTITLE4=Sem Vergonha
TTITLE5=Vem Sonhar
TTITLE6=Alerta
TTITLE7=Nosso Samba
TTITLE8=Fim de Tarde
TTITLE9=Eu Sei Que I love You
TTITLE10=Perdoa
TTITLE11=Pra Te Ver Sorrir
EXTD=
EXTT0=
EXTT1=
EXTT2=
EXTT3=
EXTT4=
EXTT5=
EXTT6=
EXTT7=
EXTT8=
EXTT9=
EXTT10=
EXTT11=
PLAYORDER=
